<?xml version="1.0" encoding="UTF-8"?>
<svg xmlns="http://www.w3.org/2000/svg" xmlns:xlink="http://www.w3.org/1999/xlink" width="2400" height="2400" viewBox="0 0 2400 2400">
<path fill-rule="evenodd" fill="rgb(0%, 0%, 0%)" fill-opacity="1" d="M 1200 660 C 1498.03125 660 1740 901.96875 1740 1200 C 1740 1498.035156 1498.03125 1740 1200 1740 C 901.964844 1740 660 1498.035156 660 1200 C 660 901.96875 901.964844 660 1200 660 Z M 1200 696.238281 C 921.96875 696.238281 696.242188 921.96875 696.242188 1200 C 696.242188 1478.03125 921.96875 1703.757812 1200 1703.757812 C 1478.03125 1703.757812 1703.761719 1478.03125 1703.761719 1200 C 1703.761719 921.96875 1478.03125 696.238281 1200 696.238281 Z M 1200 728.859375 C 1460.03125 728.859375 1671.140625 939.96875 1671.140625 1200 C 1671.140625 1460.03125 1460.03125 1671.140625 1200 1671.140625 C 939.96875 1671.140625 728.859375 1460.03125 728.859375 1200 C 728.859375 939.96875 939.96875 728.859375 1200 728.859375 Z M 1200 801.339844 C 979.976562 801.339844 801.34375 979.96875 801.34375 1200 C 801.34375 1420.023438 979.976562 1598.65625 1200 1598.65625 C 1420.03125 1598.65625 1598.660156 1420.023438 1598.660156 1200 C 1598.660156 979.96875 1420.03125 801.339844 1200 801.339844 Z M 1342.941406 1010.859375 L 1130.558594 1389.140625 L 1057.070312 1389.140625 L 1268.898438 1010.859375 Z M 1233.230469 1307.539062 C 1233.230469 1279.800781 1241.25 1258.269531 1257.28125 1242.960938 C 1273.308594 1227.648438 1293.941406 1219.988281 1319.160156 1219.988281 C 1344.378906 1219.988281 1364.820312 1227.648438 1380.488281 1242.960938 C 1396.160156 1258.269531 1404 1279.800781 1404 1307.539062 C 1404 1335.28125 1396.160156 1356.890625 1380.488281 1372.390625 C 1364.820312 1387.878906 1344.378906 1395.621094 1319.160156 1395.621094 C 1293.578125 1395.621094 1272.859375 1387.878906 1257.011719 1372.390625 C 1241.160156 1356.890625 1233.230469 1335.28125 1233.230469 1307.539062 Z M 1318.621094 1265.390625 C 1298.078125 1265.390625 1287.808594 1279.441406 1287.808594 1307.539062 C 1287.808594 1336 1298.078125 1350.230469 1318.621094 1350.230469 C 1338.789062 1350.230469 1348.878906 1336 1348.878906 1307.539062 C 1348.878906 1279.441406 1338.789062 1265.390625 1318.621094 1265.390625 Z M 996 1091.921875 C 996 1064.539062 1004.019531 1043.109375 1020.050781 1027.609375 C 1036.078125 1012.121094 1056.710938 1004.378906 1081.921875 1004.378906 C 1107.140625 1004.378906 1127.769531 1012.121094 1143.800781 1027.609375 C 1159.828125 1043.109375 1167.851562 1064.539062 1167.851562 1091.921875 C 1167.851562 1119.660156 1159.828125 1141.28125 1143.800781 1156.769531 C 1127.769531 1172.261719 1107.140625 1180.011719 1081.921875 1180.011719 C 1056.710938 1180.011719 1036.078125 1172.261719 1020.050781 1156.769531 C 1004.019531 1141.28125 996 1119.660156 996 1091.921875 Z M 1081.378906 1049.769531 C 1061.570312 1049.769531 1051.660156 1063.820312 1051.660156 1091.921875 C 1051.660156 1120.378906 1061.570312 1134.609375 1081.378906 1134.609375 C 1091.109375 1134.609375 1098.679688 1131.101562 1104.078125 1124.070312 C 1109.480469 1117.050781 1112.191406 1106.328125 1112.191406 1091.921875 C 1112.191406 1063.820312 1101.921875 1049.769531 1081.378906 1049.769531 "/>
</svg>
